<?xml version="1.0" encoding="utf-8"?>
<!-- Generator: Adobe Illustrator 27.0.0, SVG Export Plug-In . SVG Version: 6.00 Build 0)  -->
<svg version="1.1" id="Layer_1" xmlns="http://www.w3.org/2000/svg" xmlns:xlink="http://www.w3.org/1999/xlink" x="0px" y="0px"
	 viewBox="0 0 229 38" style="enable-background:new 0 0 229 38;" xml:space="preserve">
<style type="text/css">
	.st0{fill:#FFFFFF;}
</style>
<g>
	<path class="st0" d="M226.4,0h-56.6c-1.5,0-2.6,1.2-2.6,2.7v32.7c0,1.5,1.2,2.7,2.6,2.7h56.6c1.5,0,2.6-1.2,2.6-2.7V2.7
		C229,1.2,227.8,0,226.4,0z M178.5,22.1c0.3,1,0.7,2,1.3,2.8c0.6,0.8,1.3,1.5,2.3,2c0.9,0.5,2,0.7,3.2,0.7c0.1,0,0.1,0,0.2,0v0h9.5
		l-4.1,6.1h-5.8v0c-0.1,0-0.1,0-0.2,0c-0.4,0-0.8,0-1.2-0.1c-1.6-0.1-3-0.5-4.3-1c-1.7-0.7-3.2-1.7-4.4-3s-2.1-2.9-2.8-4.7
		c-0.6-1.8-0.9-3.8-0.9-6.1s0.3-4.3,0.9-6.1s1.5-3.4,2.8-4.7c1.2-1.3,2.7-2.3,4.4-3c1.3-0.5,2.7-0.8,4.3-1c0.4,0,0.8,0,1.2-0.1
		c0.1,0,0.1,0,0.2,0v0h5.8l4.1,6.1h-9.5c-0.1,0-0.1,0-0.2,0c-1.2,0-2.3,0.3-3.2,0.7c-0.9,0.5-1.7,1.2-2.3,2c-0.6,0.8-1,1.7-1.3,2.8
		c-0.3,1-0.4,2.1-0.4,3.2C178.1,20.1,178.3,21.1,178.5,22.1z M218.3,33.8l-6.7-9.8l-6.4,9.8h-8L207.3,19l-10-14.8h7.9l6.1,9.8
		l6.2-9.8h8.1l-10,14.8L226,33.8H218.3z"/>
</g>
<path class="st0" d="M15.9,8c2.1,1.1,3.8,2.7,4.9,4.7c1.1,2,1.7,4.4,1.7,7.2S22,25,20.8,27c-1.1,2-2.8,3.6-4.9,4.6s-4.7,1.6-7.6,1.6
	H0V6.4h8.3C11.3,6.4,13.8,6.9,15.9,8z M16.2,27.6c1.8-1.8,2.7-4.4,2.7-7.7S18,13.9,16.2,12c-1.8-1.9-4.5-2.8-7.9-2.8H3.5v21.1h4.8
	C11.8,30.3,14.4,29.4,16.2,27.6L16.2,27.6z"/>
<path class="st0" d="M30.6,12.1v21.1h-3.5V12.1H30.6z"/>
<path class="st0" d="M39.7,32.7c-1.3-0.6-2.3-1.3-3-2.3c-0.7-1-1.2-2.1-1.2-3.4H39c0.1,1.1,0.6,1.9,1.5,2.6c0.9,0.7,2,1,3.5,1
	c1.3,0,2.4-0.3,3.1-0.9c0.8-0.6,1.2-1.3,1.2-2.2c0-0.9-0.4-1.6-1.2-2.1c-0.8-0.4-2.1-0.9-3.8-1.3c-1.6-0.4-2.8-0.8-3.8-1.3
	c-1-0.4-1.8-1.1-2.5-1.9c-0.7-0.8-1.1-1.9-1.1-3.3c0-1.1,0.3-2.1,1-3s1.6-1.6,2.7-2.1c1.2-0.5,2.5-0.8,4-0.8c2.3,0,4.2,0.6,5.6,1.8
	c1.4,1.2,2.2,2.8,2.3,4.9H48c-0.1-1.1-0.5-2-1.3-2.7c-0.8-0.7-1.9-1-3.2-1c-1.3,0-2.3,0.3-3,0.8c-0.7,0.5-1.1,1.2-1.1,2.1
	c0,0.7,0.2,1.3,0.7,1.7c0.4,0.5,1,0.8,1.7,1.1c0.7,0.3,1.6,0.6,2.8,0.9c1.5,0.4,2.7,0.8,3.7,1.2c0.9,0.4,1.8,1,2.4,1.8
	c0.7,0.8,1,1.8,1.1,3.1c0,1.2-0.3,2.2-1,3.1c-0.6,0.9-1.5,1.6-2.7,2.2c-1.2,0.5-2.5,0.8-4,0.8C42.4,33.6,41,33.3,39.7,32.7
	L39.7,32.7z"/>
<path class="st0" d="M56.6,16.9c0.9-1.6,2.1-2.9,3.6-3.8c1.6-0.9,3.3-1.4,5.3-1.4c2.6,0,4.7,0.6,6.4,1.9s2.8,3,3.3,5.2h-3.8
	c-0.4-1.3-1.1-2.3-2.1-3c-1-0.7-2.3-1.1-3.9-1.1c-2,0-3.6,0.7-4.8,2.1c-1.2,1.4-1.8,3.3-1.8,5.8s0.6,4.5,1.8,5.9
	c1.2,1.4,2.8,2.1,4.8,2.1c1.5,0,2.8-0.4,3.8-1.1c1-0.7,1.7-1.7,2.1-3.1h3.8c-0.6,2.2-1.7,3.9-3.4,5.2c-1.7,1.3-3.8,1.9-6.3,1.9
	c-2,0-3.8-0.4-5.3-1.4c-1.6-0.9-2.8-2.2-3.6-3.8c-0.9-1.6-1.3-3.6-1.3-5.8C55.3,20.4,55.8,18.5,56.6,16.9L56.6,16.9z"/>
<path class="st0" d="M83.8,32.2c-1.6-0.9-2.9-2.2-3.8-3.8c-0.9-1.7-1.4-3.6-1.4-5.8s0.5-4.1,1.4-5.7c0.9-1.7,2.2-2.9,3.8-3.8
	c1.6-0.9,3.4-1.3,5.4-1.3c2,0,3.8,0.4,5.4,1.3c1.6,0.9,2.9,2.2,3.8,3.8c0.9,1.6,1.4,3.6,1.4,5.7s-0.5,4.1-1.4,5.8
	c-1,1.7-2.3,2.9-3.9,3.8c-1.6,0.9-3.5,1.4-5.5,1.4C87.1,33.6,85.4,33.1,83.8,32.2L83.8,32.2z M92.7,29.6c1.1-0.6,2-1.5,2.7-2.7
	c0.7-1.2,1-2.6,1-4.3c0-1.7-0.3-3.1-1-4.3c-0.7-1.2-1.5-2.1-2.6-2.6c-1.1-0.6-2.2-0.9-3.5-0.9c-1.2,0-2.5,0.3-3.5,0.9
	c-1.1,0.6-1.9,1.5-2.6,2.6c-0.6,1.2-1,2.6-1,4.3c0,1.7,0.3,3.2,0.9,4.4c0.6,1.2,1.5,2.1,2.5,2.6c1,0.6,2.2,0.9,3.5,0.9
	S91.5,30.2,92.7,29.6L92.7,29.6z"/>
<path class="st0" d="M112.3,30l6.5-17.9h3.7l-8.3,21.1h-4.1L102,12.1h3.8L112.3,30L112.3,30z"/>
<path class="st0" d="M145.1,24h-16.8c0.1,2.1,0.8,3.7,2.1,4.9c1.3,1.2,2.9,1.8,4.7,1.8c1.5,0,2.8-0.4,3.8-1.1c1-0.7,1.7-1.6,2.1-2.8
	h3.8c-0.6,2-1.7,3.7-3.4,4.9c-1.7,1.3-3.8,1.9-6.3,1.9c-2,0-3.8-0.4-5.4-1.4c-1.6-0.9-2.8-2.2-3.7-3.8c-0.9-1.7-1.3-3.6-1.3-5.8
	s0.4-4.1,1.3-5.7c0.9-1.6,2.1-2.9,3.7-3.8c1.6-0.9,3.4-1.3,5.4-1.3s3.8,0.4,5.3,1.3c1.5,0.9,2.7,2.1,3.6,3.6
	c0.8,1.5,1.2,3.3,1.2,5.2C145.3,22.5,145.2,23.2,145.1,24L145.1,24z M140.8,17.7c-0.6-1-1.4-1.7-2.4-2.2c-1-0.5-2.1-0.8-3.4-0.8
	c-1.8,0-3.3,0.6-4.5,1.7c-1.2,1.1-2,2.7-2.1,4.7h13.3C141.7,19.8,141.4,18.6,140.8,17.7L140.8,17.7z"/>
<path class="st0" d="M156,12.7c1.1-0.7,2.5-1,4.2-1v3.6h-0.9c-3.9,0-5.9,2.1-5.9,6.4v11.5h-3.5V12.1h3.5v3.4
	C154,14.3,154.9,13.4,156,12.7L156,12.7z"/>
</svg>
