<svg width="78" height="78" viewBox="0 0 78 78" fill="none" xmlns="http://www.w3.org/2000/svg">
<path d="M23.83 47.6798C22.54 49.0698 21.21 50.7898 21.05 52.8298C20.97 53.9098 21.21 54.7698 21.75 55.3098C22.96 56.5198 25.21 55.9598 26.54 55.1498C29.75 53.2498 31.22 48.2198 31.92 44.6398C32.02 44.0898 32.33 42.3498 32.29 41.8598L32.31 41.8398C30.67 42.6598 29.77 43.1098 28.24 44.1098C26.81 45.0498 24.99 46.4198 23.82 47.6698L23.83 47.6798Z" fill="white"/>
<path d="M31.54 26.6099C32.11 25.8299 32.62 25.0799 33.11 24.1499C34.73 21.0199 32.93 20.3699 31.96 20.9399C30.14 21.9999 28.63 25.2799 27.99 27.0799C27.62 28.0999 27.36 29.2099 27.31 30.4299H27.33C28.39 30.2299 30.79 27.6499 31.56 26.6199L31.54 26.6099Z" fill="white"/>
<path d="M51.1 25.4498C51.55 24.8598 53.74 22.1398 52.7 21.0898C52 20.3898 50.88 21.1298 50.47 21.5398C50.06 21.9498 49.35 22.9698 49.1 23.4798C48.28 25.0598 47.79 26.5798 47.77 28.7398C48.46 28.4098 50.74 25.9198 51.1 25.4498Z" fill="white"/>
<path d="M38.99 0C17.45 0 0 17.45 0 38.99C0 60.53 17.45 77.98 38.99 77.98C60.53 77.98 77.98 60.53 77.98 38.99C77.98 17.45 60.53 0 38.99 0ZM70.19 59.2C69.35 60.45 68.17 62.1 67.2 63.19L66.38 64.11C66.01 64.54 64.31 66.22 63.74 66.71C62.94 67.41 62.1 68.12 61.18 68.8C59.67 69.93 58.56 70.62 56.93 71.54C54.56 72.89 51.45 74.16 48.67 74.89C46.15 75.56 43.43 76.02 40.61 76.12C34.78 76.32 29.48 75.32 24.84 73.36C21.67 72.01 18.64 70.29 16.04 68.21C14.94 67.33 13.36 65.98 12.38 64.9C12.26 64.78 12.2 64.74 12.09 64.63L11.27 63.71C10.9 63.3 10.57 62.89 10.19 62.44C5.26 56.43 2.17 48.73 1.88 40.59C1.68 34.9 2.72 29.36 4.64 24.82C5.7 22.32 6.44 21.02 7.85 18.76C8.44 17.82 9.14 16.86 9.79 16.04C11.02 14.47 12.2 13.2 13.68 11.81L15.54 10.17C21.59 5.18 29.06 2.29 37.41 1.86L37.47 1.82C43.05 1.55 48.8 2.72 53.2 4.6C55.45 5.56 57.37 6.6 59.28 7.81C59.77 8.12 60.18 8.44 60.67 8.77C62.22 9.85 63.15 10.69 64.47 11.9C65.98 13.29 67.5 14.99 68.85 16.83C72.37 21.58 74.84 27.16 75.76 33.17C75.96 34.54 76.07 35.95 76.17 37.36C76.52 42.8 75.21 48.86 73.41 53.13C72.47 55.32 71.41 57.39 70.2 59.21L70.19 59.2Z" fill="white"/>
<path d="M53.62 9.66038C51.68 9.13038 50.04 8.68038 47.85 8.45038C45.85 8.23038 43.33 8.45038 41.75 9.19038C39.87 10.0904 38.8 11.5604 37.41 11.8704C32.52 12.9504 31.48 3.65038 44.36 5.12038C45.4 5.24038 46.41 5.39038 47.39 5.61038C48.09 5.75038 49.54 6.31038 50.19 6.28038C49.8 5.93038 49.7 5.85038 49.09 5.67038C45.41 4.57038 42.34 4.16038 38.37 4.18038C32.6 4.22038 26.63 5.92038 21.94 8.66038C21.24 9.07038 20.45 9.56038 19.83 10.0304C18.4 11.1104 17.33 11.9304 16.07 13.2404C15.52 13.8104 14.94 14.4104 14.43 15.1004C13.24 16.6504 12.63 17.5304 11.67 19.3304C10.26 21.9904 8.75001 26.4304 8.46001 30.0704C8.28001 32.3604 8.34001 34.3004 9.14001 36.1904C9.96001 38.1104 11.29 38.9704 11.8 40.4904C12.99 43.9904 7.22001 46.2804 5.42001 40.1004C4.44001 36.7404 5.07001 32.7204 5.87001 29.3204C5.97001 28.9304 6.20001 28.2604 6.22001 27.9104V27.8904C5.81001 28.0904 5.67001 28.4204 5.55001 28.9504C5.43001 29.4404 5.32001 29.8704 5.20001 30.3404C3.07001 38.9704 4.14001 48.7304 8.62001 56.2204C10.3 59.0404 12.49 61.7004 15.08 63.7104C16.33 64.6904 17.7 65.6704 19.33 66.4704C22.34 67.9604 26.16 69.2704 30.09 69.6604C32.38 69.8904 34.32 69.7004 36.17 68.9204C37.74 68.2504 39.05 66.5704 40.4 66.1804C42.49 65.5704 44.27 67.3004 43.84 69.4104C43.51 71.0504 41.69 72.0904 40.04 72.5804C37.32 73.3804 33.47 73.0304 30.61 72.4404C30.12 72.3204 28.13 71.7004 27.75 71.8704C28.24 72.5904 31.92 73.2004 33.17 73.4204C35.2 73.7504 37.55 73.8904 39.67 73.8304C43.9 73.6904 47.96 72.9704 51.43 71.6204C54.89 70.2504 57.85 68.5104 60.21 66.4604C62.54 64.4304 64.69 61.8804 66.35 58.6204C68.52 54.3404 70.85 46.6904 68.74 41.7604C68.02 40.0404 66.45 38.9004 66.1 37.4004C65.85 36.2704 66.18 35.3804 66.77 34.8004C67.34 34.2504 68.34 33.8204 69.41 34.1504C71.07 34.6604 72.03 36.1804 72.54 37.9804C73.36 40.8404 73.03 44.4004 72.4 47.3504C72.2 48.2504 71.99 49.3304 71.72 50.1504C72.19 50.1904 72.29 49.5004 72.4 49.1304C73.5 45.3504 73.85 42.3804 73.81 38.3304C73.77 34.2404 72.81 29.9804 71.56 26.6304C68.41 18.1604 61.86 11.9604 53.62 9.67038V9.66038ZM59.98 53.0104C58.92 55.5704 56.63 57.8004 53.93 58.7604C50.57 59.9504 47 59.3504 44.42 57.7004C39.06 54.3004 37.73 46.6304 40.72 40.8604C41.4 39.5304 42.38 38.3904 43.28 37.5304C44.18 36.6904 45.71 35.6104 46.72 35.0804C46.62 34.8604 45.84 33.8904 45.66 33.7304C44.74 34.4504 43.27 35.4304 42.26 36.1004C40.62 37.1804 38.62 38.3904 36.88 39.3904C35.76 40.0204 35.82 39.7804 35.69 41.0704C35.49 42.8304 35.44 44.5104 35.16 46.2704C34.63 49.6304 33.59 52.3704 31.97 54.6204C30.54 56.6004 28.39 58.7304 25.08 59.2404C21.32 59.8104 18.68 57.9704 17.82 55.1704C16.76 51.7104 18.64 48.5404 20.21 46.6604C22.69 43.6704 27 41.4404 30.44 39.6004C31.07 39.2704 31.75 38.9304 32.32 38.5804C32.62 38.4004 32.81 38.107 32.89 37.7004C32.95 37.3504 33.03 36.8204 33.03 36.4504C32.83 36.5304 32.66 36.6704 32.44 36.7604C30.87 37.5404 29.29 38.1704 27.47 37.5804C25.81 37.0504 24.55 35.3704 24.14 33.8004C22.75 33.6004 21.54 33.1704 20.76 32.4304C20.02 31.7304 19.33 30.8504 19 29.5004C18.67 28.1704 18.77 26.6204 19.2 25.4304C19.65 24.2004 20.2 23.3204 21.8 23.3204C21.92 23.5704 22.19 23.8904 22.19 24.2604C22.17 25.1204 20.96 28.0704 22.33 29.8704C22.6 30.2204 23.27 30.8504 24.01 30.8504L24.03 30.9104C24.32 26.1804 26.63 20.6604 30.62 18.6004C32.17 17.8204 34.24 17.7204 35.57 18.7404C36.98 19.8204 36.82 21.9704 36.43 23.5504C35.67 26.5404 33.61 29.2404 31.42 31.1204C30.46 31.9204 28.95 33.0404 27.53 33.5104C27.61 34.1004 28.02 34.6404 28.35 34.8804C28.84 35.2504 29.47 35.2304 30.15 35.0804C31.27 34.8304 32.24 34.1004 32.93 33.5304C34.24 32.4304 33.89 32.0804 34.48 30.6904C34.95 29.6104 35.44 28.6404 36.1 27.9704C38.04 26.0504 40.76 26.8704 38.6 30.6104C37.84 31.9204 36.43 33.1304 36.27 33.7804C36.04 34.7204 35.96 35.6604 35.96 36.6604C36.51 36.5804 40.03 34.3104 40.69 33.8804C41.84 33.1604 43 32.4104 44.05 31.5904C44.5 31.2604 44.62 31.2604 44.5 30.2004C43.97 25.5804 46.16 21.1804 48.57 19.3404C49.24 18.8104 50.1 18.3204 51.13 18.1104C53.22 17.6604 55.36 18.5604 55.83 20.7304C56.53 24.0204 53.62 27.5204 51.45 29.4004C51.14 29.6704 50.8 29.9904 50.45 30.2604L48.38 31.9204C48.63 32.3304 48.83 33.1704 49.59 33.6604C50.06 33.9504 50.16 33.8404 50.74 33.7204C51.15 33.6404 51.58 33.5604 52.01 33.5004C53.56 33.3204 56.12 33.8304 56.04 35.3404C56 36.1204 55.24 36.6104 54.51 36.7904C53.1 37.1604 51.81 36.9304 50.42 36.8304C49.36 36.7504 48.09 37.4804 47.31 38.0404C44.83 39.8604 43.42 42.4604 43.12 45.6904C42.79 49.0904 43.75 52.2604 46.13 54.4204C48.48 56.5504 52.53 56.5704 54.76 54.4604C55.29 53.9704 55.66 53.5404 56.09 52.8204C57.28 50.7704 57.44 47.6704 56.19 45.7804C53.86 42.2604 48.95 44.9404 50.97 48.1504C51.4 48.8304 52.05 49.4004 52.18 49.9104C52.67 51.5304 50.58 52.3204 48.85 51.0404C47.03 49.6704 46.5 46.6804 47.5 44.5404C48.87 41.5904 52.43 40.2804 55.48 41.1904C57.03 41.6404 58 42.4004 58.92 43.6404C60.68 46.0104 61.25 49.7804 59.94 52.9904L59.98 53.0104Z" fill="white"/>
</svg>
