<svg width="200" height="55" viewBox="0 0 200 55" fill="none" xmlns="http://www.w3.org/2000/svg">
<path d="M84.1028 40.558C81.9139 41.8253 79.3794 42.5165 76.7296 42.4013C68.4348 42.4013 63.481 36.641 63.481 26.8485C63.481 19.821 66.1307 15.3279 69.7021 12.9086C71.891 11.5261 74.5407 10.7197 77.1905 10.6045C79.2642 10.6045 81.2227 11.0653 83.066 11.987C84.1028 12.563 85.1397 13.2542 86.0613 14.0607L82.2595 19.2449C80.9923 17.8625 79.2642 17.056 77.5361 16.8256C73.9647 16.8256 72.3518 19.9362 72.3518 26.9637C72.3518 30.8807 72.9278 33.3001 73.8495 34.5673C74.3103 35.1433 74.8863 35.489 75.4624 35.8346C76.0384 36.065 76.7296 36.2954 77.4209 36.2954C79.4946 36.1802 81.4531 35.2586 82.8355 33.8761L83.2964 33.4153L86.8678 38.2539C86.0613 39.1756 85.1397 39.982 84.1028 40.558Z" fill="white"/>
<path d="M110.485 38.2541C109.218 39.6366 107.72 40.7886 105.992 41.4799C104.264 42.1711 102.421 42.5167 100.462 42.4015C92.2825 42.4015 86.8678 36.2956 86.8678 26.7335C86.8678 17.1714 92.2825 10.9503 100.462 10.9503C102.421 10.8351 104.379 11.1807 106.107 11.9872C107.835 12.7936 109.448 13.9457 110.715 15.4433C113.135 18.3235 114.172 21.5493 114.172 26.5031C114.287 31.6874 113.135 35.2588 110.485 38.2541ZM104.033 18.4387C103.573 17.9779 103.112 17.517 102.536 17.2866C101.96 17.0562 101.269 16.8258 100.577 16.941C99.6557 16.941 98.734 17.2866 98.0428 17.7475C97.3515 18.3235 96.7755 19.1299 96.5451 19.9364C95.8539 22.1253 95.6234 24.4294 95.7386 26.7335C95.6234 29.268 95.9691 31.9178 96.7755 34.3371C97.1211 35.1435 97.6972 35.7196 98.3884 36.1804C99.0796 36.6412 99.8861 36.8716 100.808 36.8716C104.264 36.8716 105.762 33.7611 105.762 26.6183C105.646 22.3557 105.186 19.706 104.033 18.4387Z" fill="white"/>
<path d="M136.637 42.6318C135.6 41.9405 134.793 40.9037 134.333 39.7516C132.144 41.7101 129.264 42.747 126.383 42.6318C122.121 42.6318 118.434 40.6733 117.397 37.6779C116.821 35.7194 116.591 33.6457 116.706 31.6872V12.2174L124.54 10.7197V30.1895C124.425 31.9176 124.655 33.5305 125.231 35.1434C125.577 35.6042 125.923 35.9498 126.383 36.2954C126.844 36.5258 127.42 36.6411 127.996 36.6411C129.033 36.6411 129.955 36.2954 130.876 35.8346C131.683 35.3738 132.489 34.5673 132.95 33.7609V12.4478L140.554 10.8349V33.8761C140.554 35.8346 141.13 37.7931 142.397 39.406L136.637 42.6318Z" fill="white"/>
<path d="M167.627 38.9452C166.59 40.0973 165.323 40.9037 163.941 41.4798C162.558 42.0558 161.06 42.4014 159.563 42.2862C157.374 42.2862 155.185 41.7102 153.226 40.6733C153.342 41.4798 153.342 42.2862 153.342 43.2078V52.6547L145.738 54.6132V19.8211C145.853 17.2865 145.623 14.752 145.277 12.2175L152.305 10.9502C152.535 11.8718 152.766 12.7935 152.881 13.8303C153.918 12.9087 155.07 12.1023 156.337 11.6414C157.604 11.1806 158.987 10.9502 160.369 10.9502C162.558 10.9502 164.632 11.6414 166.36 12.7935C169.586 14.9824 172.005 18.8994 172.005 25.8118C171.89 32.2633 170.738 35.6043 167.627 38.9452ZM162.443 19.9363C162.212 19.1298 161.636 18.4386 160.945 17.9778C160.254 17.5169 159.448 17.2865 158.641 17.4017C157.604 17.4017 156.683 17.6321 155.761 17.9778C154.839 18.3234 154.033 18.8994 153.342 19.7058V34.337C154.609 35.3738 156.107 35.9499 157.719 36.0651C161.636 36.0651 163.134 33.4153 163.134 26.503C163.365 24.3141 163.019 22.01 162.443 19.9363Z" fill="white"/>
<path d="M195.853 43.323C194.009 42.6318 192.512 41.3646 191.59 39.6365C191.014 40.2125 190.438 40.7885 189.747 41.2493C187.903 42.4014 185.83 42.9774 183.641 42.8622C176.844 42.8622 173.272 39.406 173.272 33.4153C173.272 26.3878 178.226 23.0468 187.788 23.0468C188.364 23.0468 188.94 23.0468 189.516 23.162V21.8948C189.516 18.5538 188.825 17.4017 185.945 17.4017C183.41 17.4017 180.415 18.669 177.074 20.8579L173.733 15.2128C175.231 14.176 176.959 13.3695 178.687 12.6783C181.337 11.5262 184.102 10.9502 186.982 10.9502C192.051 10.9502 195.507 12.7935 196.774 16.2497C197.35 17.9778 197.465 19.821 197.35 21.6643L197.12 31.8025C197.12 35.1434 197.35 36.5259 200 38.4844L195.853 43.323ZM189.171 28.5767C183.641 28.5767 181.797 29.6135 181.797 33.1849C181.797 33.6458 181.797 34.2218 181.913 34.6826C182.028 35.1434 182.258 35.6043 182.604 35.9499C182.95 36.2955 183.295 36.6411 183.756 36.8715C184.217 37.1019 184.678 37.2171 185.138 37.2171C185.945 37.2171 186.751 36.9867 187.443 36.6411C188.134 36.2955 188.825 35.8347 189.286 35.1434L189.401 28.6919H189.171V28.5767Z" fill="white"/>
<path d="M7.72134 26.2724C7.60614 25.2355 9.21902 23.8531 11.8688 22.5858C10.8319 22.4706 9.91026 22.2402 8.98861 22.0098C3.68914 23.9683 -0.112657 26.3876 0.00254905 28.2309C0.00254905 30.1894 4.72599 30.6502 10.9471 29.7286C11.7535 29.0373 12.56 28.3461 13.3664 27.7701C10.1407 27.8853 7.83655 27.3092 7.72134 26.2724Z" fill="white"/>
<path d="M14.9793 14.8673C16.5922 16.1345 18.4355 17.2866 20.2788 18.2082C18.3203 17.2866 16.5922 16.2497 14.9793 14.8673C13.136 13.2544 12.3296 11.7567 13.0208 11.0655C13.5969 10.3742 15.4402 10.3742 17.6291 10.8351C17.1682 10.259 16.8226 9.68299 16.5922 9.10697C12.56 7.8397 9.21904 7.60929 8.06698 8.64614C6.91492 9.7982 8.64301 12.2175 12.2144 14.7521C13.136 14.8673 14.0577 14.8673 14.9793 14.8673Z" fill="white"/>
<path d="M46.2 14.0613C44.2415 14.1765 42.283 14.4069 40.3245 14.8677C39.6333 15.0981 38.8269 15.2133 38.1356 15.4437C38.8269 15.2133 39.5181 14.9829 40.3245 14.8677C42.283 14.4069 44.2415 14.1765 46.2 14.0613C48.7346 13.946 50.5779 14.4069 51.0387 15.2133C51.4995 16.0198 50.5779 17.0566 48.8498 18.0935C46.8913 19.1303 44.8176 20.052 42.6287 20.5128C41.8222 20.7432 41.0158 20.8584 40.3245 21.0888C41.131 21.4344 41.8222 21.78 42.6287 22.1257C44.7024 23.1625 46.7761 24.3146 48.6194 25.697C46.7761 24.3146 44.8176 23.1625 42.7439 22.1257C41.9374 21.78 41.131 21.4344 40.4397 21.0888C41.2462 20.9736 42.0526 20.7432 42.7439 20.5128C44.9328 19.9368 46.8913 19.1303 48.8498 18.0935C49.7714 18.2087 50.5779 18.4391 51.3843 18.6695C54.8405 17.0566 56.5686 15.3285 55.8773 14.0613C55.0709 12.6788 51.8451 12.3332 47.4673 12.794C47.2369 13.1396 46.7761 13.6004 46.2 14.0613Z" fill="white"/>
<path d="M36.8684 7.37926C38.3661 5.99679 39.8638 5.42076 40.6702 5.76637C41.4767 6.11199 41.7071 7.26405 41.3615 8.87693C40.9006 10.605 40.2094 12.3331 39.2878 13.946C40.2094 12.3331 40.9006 10.7202 41.3615 8.87693C42.0527 8.53132 42.6287 8.1857 43.2048 7.95529C44.1264 5.19034 44.0112 3.00143 42.7439 2.54061C41.4767 1.96458 39.1726 3.23184 36.7532 5.76637C36.7532 6.11199 36.7532 6.68802 36.8684 7.37926Z" fill="white"/>
<path d="M20.7396 19.5908C21.2004 19.4756 21.5461 19.3604 22.0069 19.3604C21.5461 19.4756 21.2004 19.5908 20.7396 19.5908Z" fill="white"/>
<path d="M25.5783 12.3323C25.1175 10.7194 24.8871 9.10655 24.8871 7.49367C24.8871 5.53517 25.4631 4.2679 26.3848 4.03749C27.3064 3.80708 28.3433 4.61352 29.3801 6.1112C30.417 7.49367 31.1082 8.99134 31.7994 10.6042C31.2234 8.99134 30.5322 7.49367 29.4953 6.2264C29.6105 5.65037 29.8409 5.07434 30.0713 4.61352C28.4585 1.84858 26.6152 0.235697 25.2327 0.466109C23.8502 0.696521 23.0438 3.00064 23.3894 6.34161C23.8502 6.68723 24.4263 7.14805 24.8871 7.60887C24.7719 9.10655 25.1175 10.7194 25.5783 12.3323Z" fill="white"/>
<path d="M38.3661 29.1527C39.1725 31.572 39.8638 34.1066 40.2094 36.6411C40.6702 40.0973 40.0942 42.747 38.9421 43.2078C37.79 43.6687 36.062 42.171 34.5643 39.5213C33.0666 36.9867 31.9145 34.2218 31.1081 31.4568C30.8777 30.5352 30.6473 29.6135 30.4169 28.8071C30.6473 29.6135 30.7625 30.5352 30.9929 31.4568C31.7993 34.337 32.9514 37.1019 34.4491 39.6365C34.2187 40.9037 33.9883 42.0558 33.7578 43.2078C36.4076 48.8529 39.5181 52.6547 41.5918 51.7331C43.896 50.8114 43.896 45.2815 42.3983 38.83C41.5918 38.1388 40.9006 37.4475 40.0942 36.6411C39.8638 34.1066 39.2877 31.572 38.3661 29.1527Z" fill="white"/>
<path d="M48.6194 25.6972C51.0388 27.5405 52.4212 29.3838 52.0756 30.3055C51.73 31.3423 49.8867 31.4575 47.3522 30.8815C48.0434 31.8031 48.7346 32.6096 49.3107 33.416C54.1493 35.0289 57.8359 35.1441 58.4119 33.416C58.988 31.5727 55.8774 28.5774 51.2692 25.582C50.4627 25.6972 49.5411 25.6972 48.6194 25.6972Z" fill="white"/>
<path d="M18.0898 41.5946C16.9378 41.0186 17.1682 38.7145 18.205 35.7191C19.2419 32.9542 20.6244 30.1893 22.3525 27.7699C22.9285 26.9635 23.3893 26.1571 23.9653 25.4658C23.3893 26.1571 22.9285 26.8483 22.3525 27.6547C20.6244 30.1893 19.2419 32.839 18.205 35.6039C17.1682 36.2952 16.0161 36.9864 14.9793 37.5624C12.0991 43.3227 11.0623 48.2766 13.0208 49.4286C15.0945 50.6959 19.7027 46.8941 24.0805 41.1338C24.0805 40.097 24.1957 38.9449 24.311 37.7928C21.6612 40.7882 19.2419 42.1707 18.0898 41.5946Z" fill="white"/>
<path d="M21.6612 27.0791C20.5091 27.4247 19.2419 27.8855 17.9746 28.2312C15.4401 28.9224 13.136 29.3832 10.8318 29.7288C5.64757 34.2219 2.4218 38.5997 3.45866 40.443C4.49551 42.1711 9.21895 40.9038 14.864 37.678C16.0161 35.2587 17.629 32.609 19.3571 30.0745C20.1635 29.0376 20.9699 28.0007 21.6612 27.0791Z" fill="white"/>
<path d="M22.3525 27.7709C22.9286 26.9645 23.3894 26.2733 23.9654 25.582C23.159 25.9276 22.2373 26.1581 21.3157 26.3885C18.7811 27.0797 16.1314 27.5405 13.4817 27.7709H13.3665C12.56 28.4622 11.6384 29.1534 10.9471 29.7294C13.1361 29.3838 15.5554 28.923 18.0899 28.2318C19.3572 27.8861 20.6244 27.5405 21.7765 27.0797C21.0853 28.0014 20.2788 29.0382 19.5876 29.9599C17.8595 32.4944 16.3618 35.1441 15.0946 37.5634C16.1314 36.9874 17.1683 36.2962 18.3203 35.6049C19.242 32.84 20.6244 30.1903 22.3525 27.7709Z" fill="white"/>
<path d="M19.9331 19.0146C19.0115 18.669 18.0898 18.2082 17.053 17.7474C15.2097 16.8257 13.5968 15.9041 12.3295 14.9824C6.91487 15.0976 2.76745 16.1345 2.07622 17.7474C1.38498 19.3602 4.26513 20.9731 9.10378 22.1252C11.4079 21.3187 13.9424 20.5123 16.5922 19.8211C17.629 19.4755 18.7811 19.245 19.9331 19.0146Z" fill="white"/>
<path d="M11.8689 22.587C14.4034 21.4349 17.0531 20.5133 19.8181 19.822C20.1637 19.7068 20.3941 19.7068 20.7397 19.5916C21.2005 19.4764 21.5462 19.3612 22.007 19.3612C22.1222 19.3612 22.3526 19.246 22.4678 19.246C22.4678 19.246 22.3526 19.246 22.3526 19.1308C21.6614 18.9004 20.9701 18.5548 20.3941 18.2091H20.2789C18.4356 17.2875 16.5923 16.1354 14.9794 14.8682H12.3297C13.7121 15.7898 15.325 16.8267 17.0531 17.6331C18.09 18.0939 19.0116 18.5548 19.9333 18.9004C18.7812 19.1308 17.6292 19.3612 16.4771 19.5916C13.8274 20.1676 11.2928 20.9741 8.98871 21.8957C9.91036 22.2413 10.832 22.3565 11.8689 22.587Z" fill="white"/>
<path d="M24.7718 12.6785C24.4262 11.872 24.1958 11.0656 23.9654 10.2591C23.5046 8.76147 23.2741 7.379 23.1589 6.11173C20.0484 3.69241 17.053 2.42514 15.6706 3.11638C14.2881 3.80761 14.6337 6.11173 16.3618 9.10708C18.0899 9.68311 20.0484 10.3743 22.0069 11.296C23.1589 11.7568 23.9654 12.2176 24.7718 12.6785Z" fill="white"/>
<path d="M24.1958 13.2541C24.887 13.5997 25.5783 13.9454 26.1543 14.291C25.9239 13.7149 25.6935 13.0237 25.463 12.4477C25.0022 10.8348 24.7718 9.22192 24.6566 7.49383C24.1958 7.033 23.6198 6.57218 23.1589 6.22656C23.2741 7.49383 23.5045 8.8763 23.9654 10.374C24.1958 11.1804 24.4262 11.9869 24.7718 12.7933C23.8502 12.3325 23.0437 11.8717 22.1221 11.526C20.1636 10.6044 18.3203 9.79795 16.477 9.33712C16.8226 9.91315 17.1682 10.4892 17.5138 11.0652C19.9332 11.4108 22.1221 12.2173 24.1958 13.2541Z" fill="white"/>
<path d="M39.8637 14.291C40.7854 14.0606 41.707 13.8302 42.6287 13.5998C44.3567 13.1389 46.0848 12.9085 47.5825 12.6781C50.0018 10.0284 50.9235 7.72427 49.8866 6.80262C48.8498 5.88098 46.3152 6.3418 43.2047 7.83948C42.7439 9.10674 42.1678 10.6044 41.2462 12.2173C40.7854 12.9085 40.3245 13.5998 39.8637 14.291Z" fill="white"/>
<path d="M39.2876 13.8306C39.1724 13.9458 39.0572 14.1762 38.942 14.4066C38.7116 14.7522 38.4812 15.213 38.2508 15.5587C38.942 15.3283 39.7485 15.0978 40.4397 14.9826C42.3982 14.5218 44.3567 14.1762 46.3152 14.1762C46.776 13.7154 47.3521 13.2545 47.6977 12.7937C46.0848 13.0241 44.4719 13.2545 42.7438 13.7154C41.8222 13.9458 40.9005 14.1762 39.9789 14.4066C40.4397 13.7154 40.9005 13.0241 41.2461 12.3329C42.1678 10.8352 42.7438 9.33755 43.2046 7.95508C42.6286 8.18549 41.9374 8.53111 41.3614 8.87672C40.9005 10.6048 40.2093 12.2177 39.2876 13.8306Z" fill="white"/>
<path d="M30.0713 31.5723C29.6105 32.6091 28.9192 33.7612 28.3432 34.9132C27.0759 37.2174 25.5783 39.4063 24.0806 41.3648C23.8502 48.3923 25.2326 53.9222 27.7672 54.1526C30.1865 54.383 32.4906 49.5444 33.9883 43.2081C32.8362 40.7887 31.9146 38.139 31.1081 35.2589C30.5321 33.8764 30.3017 32.7243 30.0713 31.5723Z" fill="white"/>
<path d="M30.9929 31.4564C30.7625 30.5347 30.5321 29.7283 30.4169 28.8066C30.0713 29.6131 29.6104 30.4195 29.1496 31.226C27.7672 33.6453 26.1543 35.8342 24.311 37.9079C24.1958 39.06 24.1958 40.212 24.0806 41.2489C25.5782 39.2904 26.9607 37.1015 28.3432 34.7973C29.0344 33.6453 29.6105 32.4932 30.0713 31.4564C30.3017 32.6084 30.6473 33.7605 30.9929 35.0278C31.7994 37.9079 32.8362 40.6728 33.8731 42.977C34.1035 41.8249 34.3339 40.6728 34.5643 39.4056C32.9514 36.9863 31.7994 34.3365 30.9929 31.4564Z" fill="white"/>
<path d="M32.6058 10.95C32.9514 10.2587 33.4122 9.56751 33.8731 8.87628C34.7947 7.60901 35.7163 6.45696 36.638 5.53531C36.2924 2.30954 35.2555 0.235837 33.8731 0.00542514C32.4906 -0.109781 30.9929 1.61831 29.9561 4.38325C30.6473 5.65051 31.3385 7.03298 31.9146 8.64587C32.2602 9.56751 32.4906 10.2587 32.6058 10.95Z" fill="white"/>
<path d="M31.6842 10.4897C31.7994 10.6049 31.7994 10.8353 31.9146 10.9506C32.145 11.5266 32.2602 12.2178 32.4906 12.7938C32.721 12.333 33.0667 11.8722 33.2971 11.4114C33.4123 11.2962 33.4123 11.181 33.4123 11.181C34.3339 9.79849 35.486 8.53123 36.7532 7.37917C36.7532 6.80314 36.638 6.22711 36.638 5.65108C35.7164 6.57273 34.7947 7.72479 33.8731 8.99205C33.4123 9.68329 32.9514 10.3745 32.6058 11.0658C32.3754 10.2593 32.145 9.56808 31.9146 8.76164C31.3386 7.14876 30.6473 5.76629 29.9561 4.49902C29.7257 4.95985 29.6105 5.53588 29.3801 6.11191C30.4169 7.49438 31.2234 8.99205 31.6842 10.4897Z" fill="white"/>
<path d="M59.1032 22.5849C58.8727 21.0873 55.7622 19.5896 51.4996 18.5527C49.8867 19.244 48.0434 19.9352 45.8545 20.5112C44.9328 20.7416 43.896 20.9721 42.8591 21.2025C43.7808 21.5481 44.8176 22.0089 45.8545 22.4697C47.813 23.3914 49.6563 24.4282 51.2692 25.4651C56.223 25.3499 59.3336 24.1978 59.1032 22.5849Z" fill="white"/>
<path d="M42.8592 21.3195C43.7808 21.0891 44.8177 20.8587 45.8545 20.6283C48.0434 20.0523 49.8867 19.361 51.4996 18.6698C50.6932 18.4394 49.7715 18.3242 48.9651 18.0938C47.0066 19.1306 44.9329 20.0522 42.8592 20.5131C42.0527 20.7435 41.2463 20.8587 40.5551 21.0891C41.3615 21.4347 42.0527 21.7803 42.8592 22.126C44.9329 23.1628 46.8914 24.3149 48.7347 25.6973H51.3844C49.7715 24.6605 47.9282 23.6236 45.9697 22.702C44.8177 22.126 43.896 21.6651 42.8592 21.3195Z" fill="white"/>
<path d="M39.1726 28.8066C39.6334 29.8435 40.0943 30.8803 40.4399 32.0324C41.2463 34.3365 41.9375 36.6406 42.3984 38.7143C47.1218 42.8618 51.4996 45.0507 52.8821 43.3226C54.2646 41.7097 52.5365 37.7927 49.3107 33.2997C47.1218 32.6084 44.7025 31.5716 42.168 30.3043C41.2463 29.9587 40.2095 29.3827 39.1726 28.8066Z" fill="white"/>
<path d="M47.3522 30.8808C44.7024 30.3048 42.1679 29.2679 39.7486 28.0007C38.8269 27.5398 38.1357 27.1942 37.4445 26.7334C37.7901 27.5398 38.1357 28.3463 38.3661 29.1527C39.2878 31.572 39.8638 34.1066 40.2094 36.6411C41.0158 37.4475 41.7071 38.1388 42.5135 38.83C42.0527 36.6411 41.3615 34.337 40.555 32.1481C40.0942 30.996 39.6334 29.844 39.2878 28.9223C40.3246 29.4983 41.3615 30.0744 42.3983 30.6504C44.9328 31.9177 47.3522 32.9545 49.5411 33.6458C48.8498 32.6089 48.1586 31.6872 47.3522 30.8808C47.429 30.8808 47.429 30.8808 47.3522 30.8808Z" fill="white"/>
<path d="M21.2003 26.2723C18.6658 26.9635 16.0161 27.4243 13.3663 27.6547H13.4815C16.1313 27.5395 18.6658 27.0787 21.2003 26.2723C22.122 26.0418 23.0436 25.8114 23.8501 25.4658C23.1588 25.8114 22.2372 26.0418 21.2003 26.2723Z" fill="white"/>
<path d="M22.3524 19.2459C21.6612 19.0155 21.0852 18.6698 20.3939 18.3242C20.97 18.6698 21.6612 18.9002 22.3524 19.2459Z" fill="white"/>
<path d="M19.818 19.8212C20.0484 19.706 20.394 19.706 20.7396 19.5908C20.5092 19.706 20.1636 19.706 19.818 19.8212C17.053 20.3973 14.4033 21.3189 11.8688 22.5862C14.4033 21.4341 17.1682 20.5125 19.818 19.8212Z" fill="white"/>
<path d="M22.4676 19.2451C22.3524 19.2451 22.122 19.3603 22.0068 19.3603C22.122 19.3603 22.3524 19.3603 22.4676 19.2451Z" fill="white"/>
<path d="M38.1356 15.5583C38.366 15.2127 38.5964 14.7519 38.8269 14.4062C38.7117 14.7519 38.366 15.2127 38.1356 15.5583Z" fill="white"/>
<path d="M29.0344 31.226C27.6519 33.6453 26.039 35.8342 24.1957 37.9079C26.039 35.9494 27.6519 33.6453 29.0344 31.226C29.4952 30.4195 29.956 29.6131 30.4169 28.8066C30.0712 29.6131 29.6104 30.4195 29.0344 31.226Z" fill="white"/>
<path d="M36.7533 7.37988C35.486 8.53194 34.334 9.79921 33.4123 11.1817C33.2971 11.2969 33.2971 11.4121 33.2971 11.4121C33.4123 11.2969 33.4123 11.1817 33.4123 11.1817C34.4492 9.79921 35.6012 8.53194 36.7533 7.37988Z" fill="white"/>
<path d="M32.4906 12.7934C32.3754 12.2173 32.145 11.5261 31.9146 10.9501C31.9146 10.8349 31.7994 10.6045 31.6842 10.4893C31.6842 10.6045 31.7994 10.8349 31.7994 10.9501C32.145 11.6413 32.2602 12.2173 32.4906 12.7934Z" fill="white"/>
<path d="M39.8638 28.0007C38.9421 27.5398 38.1357 27.1942 37.4445 26.7334C38.1357 27.1942 38.8269 27.655 39.8638 28.0007C42.1679 29.2679 44.8176 30.1896 47.4674 30.8808C44.8176 30.1896 42.2831 29.2679 39.8638 28.0007Z" fill="white"/>
</svg>
