<svg width="127" height="41" viewBox="0 0 127 41" fill="none" xmlns="http://www.w3.org/2000/svg">
<path d="M80.1804 40.3207C79.0112 40.3207 77.842 39.8601 76.9562 38.9743L58.5674 20.1604L76.9562 1.34639C77.842 0.425175 79.0112 0 80.2159 0C82.8023 0 84.7156 2.09044 84.7156 4.49976C84.7156 5.63356 84.2904 6.80279 83.4401 7.68858L71.2163 20.1604L83.4401 32.6322C84.2904 33.5179 84.7156 34.6872 84.7156 35.821C84.6802 38.2303 82.7669 40.3207 80.1804 40.3207Z" fill="white"/>
<path d="M53.3953 40.3205C50.9151 40.3205 48.8955 38.3009 48.8955 35.8207V4.53492C48.8955 2.05474 50.9151 0.0351562 53.3953 0.0351562C55.8755 0.0351562 57.895 2.05474 57.895 4.53492V35.8207C57.9305 38.3009 55.9109 40.3205 53.3953 40.3205Z" fill="white"/>
<path d="M109.978 40.2853C98.3215 40.2853 89.3574 32.4196 89.3574 20.1604C89.3574 9.14126 97.046 0 109.978 0C113.663 0 117.596 0.956643 120.749 2.8345C122.167 3.68485 122.946 5.17296 122.946 6.73193C122.946 9.07039 121.068 11.2317 118.446 11.2317C117.632 11.2317 116.852 11.0191 116.108 10.5939C114.407 9.63729 112.317 8.89324 110.049 8.89324C102.963 8.89324 98.5695 13.7473 98.5695 20.1604C98.5695 26.9986 103.388 31.3921 110.049 31.3921C112.423 31.3921 115.293 30.5063 117.1 29.2662V25.1562H114.088C111.608 25.1562 109.589 23.1366 109.589 20.6564C109.589 18.1762 111.608 16.1566 114.088 16.1566H121.6C124.08 16.1566 126.1 18.1762 126.1 20.6564V31.0377C126.1 32.3841 125.533 33.6951 124.576 34.6163C120.856 38.2657 115.612 40.2853 109.978 40.2853Z" fill="white"/>
<path d="M9.56643 4.78322C9.56643 7.40513 7.44056 9.56643 4.78322 9.56643C2.12587 9.56643 0 7.44056 0 4.78322C0 2.12587 2.12587 0 4.78322 0C7.40513 0 9.56643 2.1613 9.56643 4.78322Z" fill="white"/>
<path d="M38.7615 4.78322C38.7615 7.40513 36.6356 9.56643 33.9783 9.56643C31.3209 9.56643 29.2305 7.40513 29.2305 4.78322C29.2305 2.1613 31.3563 0 34.0137 0C36.6356 0 38.7615 2.1613 38.7615 4.78322Z" fill="white"/>
<path d="M19.3809 40.3203C8.8224 40.3203 0.248047 31.746 0.248047 21.1875V18.1404C0.248047 15.6602 2.26763 13.6406 4.74781 13.6406C7.228 13.6406 9.24758 15.6602 9.24758 18.1404V21.2938C9.24758 26.8565 12.5427 31.3917 19.3455 31.3917C25.6877 31.3917 29.4434 26.8565 29.4434 21.2938V18.1404C29.4434 15.6602 31.463 13.6406 33.9431 13.6406C36.4233 13.6406 38.4429 15.6602 38.4429 18.1404V21.1875C38.5138 31.746 29.9394 40.3203 19.3809 40.3203Z" fill="white"/>
</svg>
